<svg width="107" height="40" viewBox="0 0 107 40" fill="none" xmlns="http://www.w3.org/2000/svg">
<path d="M18.9108 37.2973C18.9108 36.4695 19.0763 35.8399 19.4073 35.4086C19.7383 34.9703 20.2183 34.7512 20.8472 34.7512C21.496 34.7512 21.9925 34.9703 22.3367 35.4086C22.6743 35.8399 22.8431 36.4695 22.8431 37.2973L22.8431 37.8191L23.6475 37.8191L23.6475 36.8382L24.7596 36.8382L24.7596 40L23.6475 40L23.6475 39.1652L20.023 39.1652L20.023 40L18.9108 40L18.9108 37.2973ZM21.8601 37.3078C21.8601 36.5286 21.5324 36.139 20.877 36.139C20.3077 36.139 20.023 36.5286 20.023 37.3078L20.023 37.8086L21.8601 37.8086L21.8601 37.3078Z" fill="#212121"/>
<path d="M18.6924 31.0007C18.6924 30.3885 18.8149 29.8494 19.0598 29.3833C19.2981 28.9102 19.649 28.5415 20.1124 28.2772C20.5758 28.0128 21.1484 27.8806 21.8303 27.8806C22.5055 27.8806 23.0782 28.0128 23.5482 28.2772C24.0182 28.5415 24.3757 28.9068 24.6206 29.3729C24.8589 29.839 24.9781 30.3781 24.9781 30.9903C24.9781 31.5955 24.8589 32.1347 24.6206 32.6077C24.3757 33.0738 24.0182 33.4391 23.5482 33.7034C23.0782 33.9678 22.5055 34.0999 21.8303 34.0999C21.1484 34.0999 20.5758 33.9678 20.1124 33.7034C19.649 33.4391 19.2981 33.0738 19.0598 32.6077C18.8149 32.1416 18.6924 31.606 18.6924 31.0007ZM19.7648 30.9903C19.7648 31.5607 19.9403 31.9886 20.2911 32.2738C20.6354 32.559 21.1484 32.7016 21.8303 32.7016C22.5121 32.7016 23.0285 32.559 23.3794 32.2738C23.7302 31.9886 23.9057 31.5607 23.9057 30.9903C23.9057 30.4198 23.7302 29.992 23.3794 29.7068C23.0285 29.4146 22.5121 29.2685 21.8303 29.2685C21.1484 29.2685 20.6354 29.4111 20.2911 29.6964C19.9403 29.9816 19.7648 30.4129 19.7648 30.9903Z" fill="#212121"/>
<path d="M24.7596 26.9969L23.6475 26.9969L23.6475 26.1621L20.023 26.1621L20.023 26.9969L18.9108 26.9969L18.9108 24.2421C18.9108 23.5812 18.9936 23.0699 19.1591 22.7081C19.318 22.3464 19.5464 22.0959 19.8443 21.9568C20.1422 21.8177 20.4897 21.7481 20.8869 21.7481C21.5489 21.7481 22.0421 21.9324 22.3665 22.3011C22.6909 22.6629 22.8531 23.2055 22.8531 23.929L22.8531 24.816L23.6475 24.816L23.6475 24.3151L24.7596 24.3151L24.7596 26.9969ZM21.7508 24.8056L21.7508 24.3047C21.7508 24.0125 21.7244 23.7829 21.6714 23.616C21.6184 23.4421 21.5291 23.3203 21.4033 23.2507C21.2775 23.1742 21.1054 23.136 20.8869 23.136C20.6618 23.136 20.4864 23.1812 20.3606 23.2716C20.2348 23.362 20.1488 23.4942 20.1024 23.6681C20.0495 23.8421 20.023 24.0542 20.023 24.3047L20.023 24.8056L21.7508 24.8056ZM24.7596 23.0107L22.714 24.1795L22.5055 22.969L23.6475 22.2281L23.6475 21.1429L24.7596 21.1429L24.7596 23.0107Z" fill="#212121"/>
<path d="M7.16114 18.8091C5.67543 18.8091 4.39771 18.7002 3.328 18.4823C2.25829 18.2644 1.32724 17.997 0.534857 17.68L0 13.4606L3.09029 13.0743L3.38743 15.2137C3.9619 15.4118 4.54629 15.5604 5.14057 15.6594C5.73486 15.7387 6.30933 15.7783 6.864 15.7783C7.61676 15.7783 8.3101 15.6891 8.944 15.5109C9.5779 15.3326 10.083 15.0651 10.4594 14.7086C10.8358 14.352 11.024 13.9063 11.024 13.3714C11.024 12.8168 10.8358 12.3413 10.4594 11.9451C10.083 11.5291 9.27086 11.2122 8.02286 10.9943L5.91314 10.608C4.11048 10.2712 2.72381 9.67695 1.75314 8.82514C0.782476 7.95352 0.297143 6.79467 0.297143 5.34857C0.297143 4.12038 0.633905 3.11009 1.30743 2.31771C1.98095 1.52533 2.86248 0.940952 3.952 0.564571C5.06133 0.18819 6.24 0 7.488 0C8.1219 0 8.75581 0.0495238 9.38971 0.148571C10.0236 0.227808 10.6476 0.35657 11.2617 0.534856C11.8758 0.693332 12.4602 0.901332 13.0149 1.15886L13.6091 5.76457L10.2514 6.12114L9.86514 3.35771C9.44914 3.21905 9.02324 3.12 8.58743 3.06057C8.17143 2.98133 7.75543 2.94171 7.33943 2.94171C6.21029 2.94171 5.32876 3.13981 4.69486 3.536C4.06095 3.91238 3.744 4.40762 3.744 5.02171C3.744 5.67543 3.97181 6.18057 4.42743 6.53714C4.88305 6.89371 5.69524 7.18095 6.864 7.39886L8.91429 7.75543C10.915 8.05257 12.3215 8.63695 13.1337 9.50857C13.9657 10.3604 14.3817 11.4895 14.3817 12.896C14.3817 14.1242 14.1539 15.1246 13.6983 15.8971C13.2427 16.6697 12.6484 17.2739 11.9154 17.7097C11.1825 18.1257 10.3901 18.413 9.53828 18.5714C8.70628 18.7299 7.9139 18.8091 7.16114 18.8091Z" fill="#212121"/>
<path d="M16.8884 0.653713H26.3375V3.98171H23.5147V14.8274H26.3375V18.1554H16.8587V14.8274H19.7112V3.98171H16.8884V0.653713Z" fill="#212121"/>
<path d="M28.9308 0.653713H42.5102L44.3525 6.15086L41.2028 7.22057L40.1034 3.98171H35.1708V7.63657H40.0142V10.9349H35.1708V14.8274H40.9057L41.9457 11.9154L45.0657 13.0149L43.2828 18.1554H28.9011V14.8274H31.3079L31.3377 3.98171H28.9308V0.653713Z" fill="#212121"/>
<path d="M46.7947 0.653713H62.8107V6.98286H59.4827V3.98171H56.7192V14.8274H59.1261V18.1554H50.4198V14.8274H52.8564V3.98171H50.1227V6.98286H46.7947V0.653713Z" fill="#212121"/>
<path d="M65.2612 0.653713H78.8406L80.6829 6.15086L77.5332 7.22057L76.4337 3.98171H71.5012V7.63657H76.3446V10.9349H71.5012V14.8274H77.236L78.276 11.9154L81.396 13.0149L79.6132 18.1554H65.2314V14.8274H67.6383L67.668 3.98171H65.2612V0.653713Z" fill="#212121"/>
<path d="M37.2314 21.1436C38.9746 21.1436 40.5099 21.51 41.8371 22.243C43.1842 22.9561 44.2341 24.006 44.9868 25.3927C45.7396 26.7794 46.116 28.4929 46.116 30.5333C46.116 32.5538 45.7396 34.2674 44.9868 35.6738C44.2341 37.0803 43.1941 38.15 41.8668 38.883C40.5396 39.5961 39.0043 39.9527 37.2611 39.9527C35.5377 39.9527 34.0024 39.5961 32.6554 38.883C31.3282 38.15 30.2882 37.0803 29.5354 35.6738C28.7826 34.2674 28.4062 32.5538 28.4062 30.5333C28.4062 28.4929 28.7826 26.7794 29.5354 25.3927C30.2882 24.006 31.3282 22.9561 32.6554 22.243C33.9826 21.51 35.508 21.1436 37.2314 21.1436ZM37.2611 24.3527C35.6367 24.3527 34.4184 24.8776 33.6062 25.9276C32.7941 26.9576 32.388 28.4929 32.388 30.5333C32.388 32.5737 32.7941 34.1188 33.6062 35.1687C34.4184 36.2186 35.6367 36.7436 37.2611 36.7436C38.8855 36.7436 40.1038 36.2186 40.916 35.1687C41.748 34.1188 42.164 32.5737 42.164 30.5333C42.164 28.4929 41.7579 26.9576 40.9457 25.9276C40.1335 24.8776 38.9053 24.3527 37.2611 24.3527Z" fill="#212121"/>
<path d="M60.6072 24.8281C60.6072 24.8083 60.4587 24.7687 60.1615 24.7093C59.8644 24.63 59.4979 24.5508 59.0621 24.4716C58.6263 24.3923 58.1905 24.3527 57.7547 24.3527C56.0907 24.3527 54.813 24.8776 53.9215 25.9276C53.0301 26.9775 52.5844 28.5028 52.5844 30.5036C52.5844 32.5241 53.04 34.0693 53.9512 35.139C54.8625 36.2087 56.1303 36.7436 57.7547 36.7436C58.2499 36.7436 58.7154 36.6841 59.1512 36.5653C59.5871 36.4266 59.9337 36.2978 60.1912 36.179C60.4686 36.0601 60.6072 36.0007 60.6072 36.0007L61.261 33.3264L64.4701 34.0693L63.5192 38.5561C63.5192 38.5561 63.2716 38.675 62.7764 38.9127C62.301 39.1306 61.6274 39.3584 60.7558 39.5961C59.8842 39.8338 58.8838 39.9527 57.7547 39.9527C55.952 39.9527 54.3573 39.6258 52.9707 38.9721C51.6038 38.2986 50.5341 37.2685 49.7615 35.8818C48.989 34.4754 48.6027 32.6826 48.6027 30.5036C48.6027 28.5226 48.9791 26.8388 49.7318 25.4521C50.4846 24.0655 51.5444 23.0056 52.9112 22.2727C54.2979 21.5199 55.9025 21.1436 57.725 21.1436C58.9532 21.1436 60.0031 21.2723 60.8747 21.5298C61.7661 21.7874 62.4396 22.0548 62.8952 22.3321C63.3707 22.5896 63.6084 22.7184 63.6084 22.7184L64.4998 27.1756L61.261 27.8887L60.6072 24.8281Z" fill="#212121"/>
<path d="M67.0297 21.7973L74.904 21.827V25.1253H73.2697V28.8098H80.3714V25.1253H78.7371V21.7973H86.6114V25.1253H84.2046V35.971H86.6114V39.299H78.7966V35.971H80.3714V32.1378H73.2697V35.971H74.8446V39.299H67.0297V35.971H69.4366V25.1253H67.0297V21.7973Z" fill="#212121"/>
<path d="M97.9658 21.1436C99.709 21.1436 101.244 21.51 102.571 22.243C103.919 22.9561 104.968 24.006 105.721 25.3927C106.474 26.7794 106.85 28.4929 106.85 30.5333C106.85 32.5538 106.474 34.2674 105.721 35.6738C104.968 37.0803 103.928 38.15 102.601 38.883C101.274 39.5961 99.7387 39.9527 97.9955 39.9527C96.2721 39.9527 94.7368 39.5961 93.3898 38.883C92.0625 38.15 91.0225 37.0803 90.2698 35.6738C89.517 34.2674 89.1406 32.5538 89.1406 30.5333C89.1406 28.4929 89.517 26.7794 90.2698 25.3927C91.0225 24.006 92.0625 22.9561 93.3898 22.243C94.717 21.51 96.2423 21.1436 97.9658 21.1436ZM97.9955 24.3527C96.3711 24.3527 95.1528 24.8776 94.3406 25.9276C93.5284 26.9576 93.1223 28.4929 93.1223 30.5333C93.1223 32.5737 93.5284 34.1188 94.3406 35.1687C95.1528 36.2186 96.3711 36.7436 97.9955 36.7436C99.6199 36.7436 100.838 36.2186 101.65 35.1687C102.482 34.1188 102.898 32.5737 102.898 30.5333C102.898 28.4929 102.492 26.9576 101.68 25.9276C100.868 24.8776 99.6397 24.3527 97.9955 24.3527Z" fill="#212121"/>
</svg>
