<svg width="24" height="24" viewBox="0 0 24 24" fill="none" xmlns="http://www.w3.org/2000/svg">
<circle cx="12" cy="12" r="11.5" transform="rotate(-180 12 12)" fill="white" stroke="#E0E0E0"/>
<g clip-path="url(#clip0_13_65518)">
<path d="M19.0029 12.4776C19.2673 12.2132 19.2673 11.7857 19.0029 11.5241L15.1779 7.69633C14.9136 7.43195 14.4861 7.43195 14.2245 7.69633C13.9629 7.9607 13.9601 8.3882 14.2245 8.64977L16.8964 11.3216L5.4748 11.3245C5.10074 11.3245 4.7998 11.6254 4.7998 11.9995C4.7998 12.3735 5.10074 12.6745 5.4748 12.6745H16.8964L14.2245 15.3463C13.9601 15.6107 13.9601 16.0382 14.2245 16.2998C14.4889 16.5613 14.9164 16.5641 15.1779 16.2998L19.0029 12.4776Z" fill="#25086C"/>
</g>
<defs>
<clipPath id="clip0_13_65518">
<rect width="14.4" height="14.4" fill="white" transform="translate(4.7998 4.7998)"/>
</clipPath>
</defs>
</svg>
