<svg width="397" height="296" viewBox="0 0 397 296" fill="none" xmlns="http://www.w3.org/2000/svg">
<path d="M335.759 140.285C385.934 175.806 331.447 312.859 191.16 275.611C98.2355 250.941 108.96 318.304 52.4108 272.832C-52.8511 188.235 10.5985 21.1061 152.498 13.4086C308.047 4.99775 250.297 79.7946 335.759 140.285Z" fill="#FFF5E4"/>
<path d="M171.114 53.2451C178.727 67.9984 177.874 77.1068 164.443 88.779C151.013 100.451 166.397 112.528 180.097 115.002" stroke="#AF8CFF" stroke-width="0.5" stroke-miterlimit="10"/>
<path d="M216.347 132.252C195.28 136.3 174.033 123.998 167.79 103.442C166.689 99.8213 166.172 96.4253 166.779 93.749C169.946 79.513 183.444 79.6029 176.077 65.4568C167.475 49.0168 164.578 35.8827 177.762 24.5478C182.86 20.1623 182.433 13.2579 192.248 7.90535C194.584 6.62343 196.852 6.84833 198.02 5.83629C214.258 -7.86002 231.08 11.1214 233.798 17.621C234.876 20.2298 237.301 21.8266 239.997 22.029C242.534 22.2089 247.857 21.984 254.348 25.5149C261.221 29.2482 267.172 36.7373 268.34 42.7871C268.857 45.5083 270.541 47.8248 272.989 49.1292C276.897 51.2432 304.23 66.9411 300.278 90.6454C296.976 110.414 294.505 119.995 294.505 119.995C294.505 119.995 244.87 126.787 216.369 132.252H216.347Z" fill="url(#paint0_linear_33_1170)"/>
<path d="M232.742 74.61C232.742 74.61 272.675 70.5394 297.65 94.2886C322.602 118.038 326.398 256.238 341.984 269.372C357.571 282.506 377.246 279.47 368.195 282.506C366.33 283.136 118.985 298.631 106.318 274.904C89.7205 243.778 131.585 264.694 140.861 242.564C151.259 217.713 160.872 185.867 154.763 162.523C141.265 110.931 158.199 98.2243 205.948 81.1995" fill="white"/>
<path d="M232.742 74.61C232.742 74.61 272.675 70.5394 297.65 94.2886C322.602 118.038 326.398 256.238 341.984 269.372C357.571 282.506 377.246 279.47 368.195 282.506C366.33 283.136 118.985 298.631 106.318 274.904C89.7205 243.778 131.585 264.694 140.861 242.564C151.259 217.713 160.872 185.867 154.763 162.523C141.265 110.931 158.199 98.2243 205.948 81.1995" stroke="#252D3B" stroke-width="0.5" stroke-miterlimit="10" stroke-linecap="round"/>
<path d="M301.715 292.559H154.808C155.078 287.588 172.529 279.717 172.843 274.972C175.201 240.652 161.501 215.643 166.509 202.869L285.028 211.213C285.028 211.213 293.652 240.697 299.267 277.963C299.941 282.663 300.772 287.521 301.715 292.536V292.559Z" fill="#252D3B"/>
<path d="M194.651 31.317C192.36 37.6141 180.928 35.2977 182.86 42.7643C184.118 47.5771 184.118 44.9683 185.285 52.5249C187.778 68.6951 201.569 74.8123 213.697 64.9393C226.004 54.8863 226.656 51.2879 218.862 34.1957C216.01 27.921 212.686 27.0664 210.103 27.7861C207.386 28.5507 204.488 28.1234 202.287 26.3242C200.109 24.5475 197.189 24.3001 194.651 31.2945V31.317Z" fill="white"/>
<path d="M190.9 55.8988C191.394 57.0458 192.248 57.7879 192.809 57.563C193.371 57.3156 193.461 56.1912 192.967 55.0217C192.472 53.8522 191.619 53.1325 191.057 53.3574C190.496 53.6048 190.406 54.7293 190.9 55.8988Z" fill="#252D3B"/>
<path d="M206.263 51.851C206.442 53.0654 207.116 54.0325 207.745 54.01C208.374 53.965 208.733 52.953 208.553 51.7385C208.374 50.5241 207.7 49.557 207.071 49.5795C206.442 49.6245 206.083 50.6365 206.263 51.851Z" fill="#252D3B"/>
<path d="M203.5 69.6853C203.5 69.6853 207.722 76.1174 205.971 83.8539C205.971 83.8539 222.793 93.9968 232.742 74.6106C232.742 74.6106 224.702 56.7087 223.062 46.3184C223.062 46.3184 204.556 67.8186 203.522 69.6853H203.5Z" fill="white"/>
<path d="M203.5 69.6856C203.5 69.6856 210.507 68.2912 216.1 61.7692C221.692 55.2471 217.537 73.0141 205.948 77.2197C205.948 77.2197 205.948 74.296 203.5 69.6631V69.6856Z" fill="#252D3B"/>
<path d="M188.946 42.809C188.946 42.809 185.735 43.8885 183.848 46.1825C181.961 48.4765 184.589 39.2332 188.946 42.809Z" fill="#252D3B"/>
<path d="M203.23 38.0646C203.23 38.0646 208.958 38.0646 211.136 38.4694C213.158 38.8517 206.307 32.1497 203.23 38.0646Z" fill="#252D3B"/>
<path d="M218.727 40.8077C218.727 40.8077 220.749 35.2078 224.949 34.3532C229.149 33.4986 231.103 46.3852 222.051 47.4422C213.023 48.5218 218.727 40.8077 218.727 40.8077Z" fill="white"/>
<path d="M222.456 47.892C223.242 49.7586 225.375 50.6133 227.24 49.8486C229.104 49.0615 229.957 46.9249 229.194 45.0583C228.408 43.1916 226.274 42.337 224.41 43.1017C222.546 43.8888 221.692 46.0253 222.456 47.892Z" fill="#252D3B"/>
<path d="M222.209 41.2574C222.209 41.2574 222.119 37.8615 225.084 36.9844" stroke="#252D3B" stroke-width="0.5" stroke-miterlimit="10" stroke-linecap="round"/>
<path d="M191.35 60.1038C195.604 60.1038 199.053 56.6501 199.053 52.3898C199.053 48.1295 195.604 44.6758 191.35 44.6758C187.095 44.6758 183.646 48.1295 183.646 52.3898C183.646 56.6501 187.095 60.1038 191.35 60.1038Z" stroke="#252D3B" stroke-width="0.5" stroke-miterlimit="10" stroke-linecap="round"/>
<path d="M200.692 47.9376C200.692 52.1882 204.151 55.6516 208.396 55.6516C212.641 55.6516 216.1 52.1882 216.1 47.9376C216.1 43.6871 212.641 40.2236 208.396 40.2236C204.151 40.2236 200.692 43.6871 200.692 47.9376Z" stroke="#252D3B" stroke-width="0.5" stroke-miterlimit="10" stroke-linecap="round"/>
<path d="M329.363 274.14C329.363 274.14 335.741 279.92 343.512 281.314Z" fill="white"/>
<path d="M329.363 274.14C329.363 274.14 335.741 279.92 343.512 281.314" stroke="#252D3B" stroke-width="0.5" stroke-miterlimit="10" stroke-linecap="round"/>
<path d="M297.762 264.807C297.762 264.807 302.838 278.076 314.337 281.629Z" fill="white"/>
<path d="M297.762 264.807C297.762 264.807 302.838 278.076 314.337 281.629" stroke="#252D3B" stroke-width="0.5" stroke-miterlimit="10" stroke-linecap="round"/>
<path d="M241.367 75.0596C241.367 75.0596 236.493 92.5117 216.145 97.5044C196.628 102.317 199.502 83.5832 199.502 83.5832" stroke="#252D3B" stroke-width="0.5" stroke-miterlimit="10" stroke-linecap="round"/>
<path d="M208.553 58.6865C208.553 58.6865 208.801 61.9251 205.14 62.8247Z" fill="white"/>
<path d="M208.553 58.6865C208.553 58.6865 208.801 61.9251 205.14 62.8247" stroke="#252D3B" stroke-width="0.5" stroke-miterlimit="10" stroke-linecap="round"/>
<path d="M214.954 43.5966C214.954 43.5966 219.581 33.9485 225.892 34.016Z" fill="white"/>
<path d="M214.954 43.5966C214.954 43.5966 219.581 33.9485 225.892 34.016" stroke="#252D3B" stroke-width="0.5" stroke-miterlimit="10" stroke-linecap="round"/>
<path d="M198.671 49.1971L200.76 48.5449" stroke="#252D3B" stroke-width="0.5" stroke-miterlimit="10" stroke-linecap="round"/>
<path d="M197.436 23.333C197.436 23.333 204.937 36.0622 218.683 26.8864" stroke="#AF8CFF" stroke-width="0.5" stroke-miterlimit="10"/>
<path d="M183.848 16.2939C183.848 16.2939 183.848 21.714 169.16 28.281C154.471 34.8481 156.403 55.3588 165.297 56.1234" stroke="#AF8CFF" stroke-width="0.5" stroke-miterlimit="10"/>
<path d="M290.979 248.749H337.134C338.818 248.749 340.053 247.174 339.671 245.533L337.92 238.044C337.65 236.852 336.595 236.02 335.382 236.02H290.957V248.726L290.979 248.749Z" fill="#252D3B"/>
<path d="M278.986 139.224C278.986 139.224 272.158 164.165 285.005 211.214Z" fill="white"/>
<path d="M278.986 139.224C278.986 139.224 272.158 164.165 285.005 211.214" stroke="#252D3B" stroke-width="0.5" stroke-miterlimit="10" stroke-linecap="round"/>
<path d="M263.916 231.342H91.8323C88.5083 231.342 85.6335 228.958 85.0271 225.697L67.2617 130.902C66.4532 126.629 69.7323 122.693 74.0669 122.693H246.173C249.497 122.693 252.372 125.077 252.979 128.338L270.721 223.133C271.53 227.406 268.251 231.342 263.916 231.342Z" fill="white" stroke="#252D3B" stroke-width="0.5" stroke-miterlimit="10" stroke-linecap="round"/>
<path d="M202.557 280.459H168.957L152.405 192.659C151.798 189.511 154.224 186.587 157.436 186.587H180.614C183.084 186.587 185.196 188.341 185.645 190.77L202.557 280.459Z" fill="#AF8CFF"/>
<path d="M103.781 283.608C103.781 283.608 105.959 263.592 128.149 261.77C150.317 259.949 151.777 280.707 151.777 280.707" fill="white"/>
<path d="M103.781 283.608C103.781 283.608 105.959 263.592 128.149 261.77C150.317 259.949 151.777 280.707 151.777 280.707" stroke="#252D3B" stroke-width="0.5" stroke-miterlimit="10" stroke-linecap="round"/>
<path d="M396.539 288.331C396.539 292.559 393.102 296 388.88 296H70.7202C68.609 296 66.6775 295.146 65.3075 293.751C63.9374 292.357 63.0615 290.445 63.0615 288.331C63.0615 284.103 66.4978 280.662 70.7202 280.662H388.902C391.014 280.662 392.945 281.517 394.315 282.911C395.708 284.305 396.561 286.217 396.561 288.331H396.539Z" fill="#F4E3FF"/>
<path d="M221.221 280.077H147.307C144.904 280.077 142.972 278.142 142.972 275.736C142.972 273.33 144.904 271.396 147.307 271.396H221.221C223.624 271.396 225.555 273.33 225.555 275.736C225.555 278.142 223.624 280.077 221.221 280.077Z" fill="white" stroke="#252D3B" stroke-width="0.5" stroke-miterlimit="10" stroke-linecap="round"/>
<path d="M310.07 241.822C310.07 248.749 314.36 254.371 319.66 254.371C324.96 254.371 329.25 248.749 329.25 241.822C329.25 234.895 324.96 229.272 319.66 229.272C314.36 229.272 310.07 234.895 310.07 241.822Z" fill="#AF8CFF"/>
<path d="M207.723 96.1325C204.129 100.248 203.77 105.826 206.937 108.592C210.103 111.381 215.583 110.301 219.177 106.185C222.77 102.07 223.13 96.4923 219.963 93.7261C216.796 90.9373 211.316 92.0168 207.723 96.1325Z" fill="#252D3B"/>
<defs>
<linearGradient id="paint0_linear_33_1170" x1="166.521" y1="0.984375" x2="247.565" y2="160.071" gradientUnits="userSpaceOnUse">
<stop stop-color="#DD24E1"/>
<stop offset="1" stop-color="#5117F4"/>
</linearGradient>
</defs>
</svg>
